<svg width="72" height="80" viewBox="0 0 72 80" fill="none" xmlns="http://www.w3.org/2000/svg">
<path d="M32.5 48.3333C37.6547 48.3333 41.8333 44.1547 41.8333 39C41.8333 33.8453 37.6547 29.6667 32.5 29.6667C27.3453 29.6667 23.1667 33.8453 23.1667 39C23.1667 44.1547 27.3453 48.3333 32.5 48.3333Z" fill="#FFB800"/>
<path d="M32.5 53.6133C31.7667 53.6133 31.1667 53.0667 31.1667 52.3333V52.2267C31.1667 51.4933 31.7667 50.8933 32.5 50.8933C33.2333 50.8933 33.8333 51.4933 33.8333 52.2267C33.8333 52.96 33.2333 53.6133 32.5 53.6133ZM42.02 49.8533C41.6733 49.8533 41.34 49.72 41.0733 49.4667L40.9 49.2933C40.38 48.7733 40.38 47.9333 40.9 47.4133C41.42 46.8933 42.26 46.8933 42.78 47.4133L42.9533 47.5867C43.4733 48.1067 43.4733 48.9467 42.9533 49.4667C42.7 49.72 42.3667 49.8533 42.02 49.8533ZM22.98 49.8533C22.6333 49.8533 22.3 49.72 22.0333 49.4667C21.5133 48.9467 21.5133 48.1067 22.0333 47.5867L22.2067 47.4133C22.7267 46.8933 23.5667 46.8933 24.0867 47.4133C24.6067 47.9333 24.6067 48.7733 24.0867 49.2933L23.9133 49.4667C23.66 49.72 23.3133 49.8533 22.98 49.8533ZM45.8333 40.3333H45.7267C44.9933 40.3333 44.3933 39.7333 44.3933 39C44.3933 38.2667 44.9933 37.6667 45.7267 37.6667C46.46 37.6667 47.1133 38.2667 47.1133 39C47.1133 39.7333 46.5667 40.3333 45.8333 40.3333ZM19.2733 40.3333H19.1667C18.4333 40.3333 17.8333 39.7333 17.8333 39C17.8333 38.2667 18.4333 37.6667 19.1667 37.6667C19.9 37.6667 20.5533 38.2667 20.5533 39C20.5533 39.7333 20.0067 40.3333 19.2733 40.3333ZM41.8467 30.9867C41.5 30.9867 41.1667 30.8533 40.9 30.6C40.38 30.08 40.38 29.24 40.9 28.72L41.0733 28.5467C41.5933 28.0267 42.4333 28.0267 42.9533 28.5467C43.4733 29.0667 43.4733 29.9067 42.9533 30.4267L42.78 30.6C42.5267 30.8533 42.1933 30.9867 41.8467 30.9867ZM23.1533 30.9867C22.8067 30.9867 22.4733 30.8533 22.2067 30.6L22.0333 30.4133C21.5133 29.8933 21.5133 29.0533 22.0333 28.5333C22.5533 28.0133 23.3933 28.0133 23.9133 28.5333L24.0867 28.7067C24.6067 29.2267 24.6067 30.0667 24.0867 30.5867C23.8333 30.8533 23.4867 30.9867 23.1533 30.9867ZM32.5 27.0533C31.7667 27.0533 31.1667 26.5067 31.1667 25.7733V25.6667C31.1667 24.9333 31.7667 24.3333 32.5 24.3333C33.2333 24.3333 33.8333 24.9333 33.8333 25.6667C33.8333 26.4 33.2333 27.0533 32.5 27.0533Z" fill="#FFB800"/>
<path d="M64.5 39C64.5 56.6731 50.1731 71 32.5 71C14.8269 71 0.5 56.6731 0.5 39C0.5 21.3269 14.8269 7 32.5 7C50.1731 7 64.5 21.3269 64.5 39ZM5.3 39C5.3 54.0221 17.4779 66.2 32.5 66.2C47.5221 66.2 59.7 54.0221 59.7 39C59.7 23.9779 47.5221 11.8 32.5 11.8C17.4779 11.8 5.3 23.9779 5.3 39Z" fill="#FFB800" fill-opacity="0.1"/>
<g filter="url(#filter0_d_6_85)">
<path d="M32.5 9.4C32.5 8.07452 33.576 6.99064 34.8978 7.08996C38.2791 7.34403 41.6038 8.13435 44.7459 9.43586C48.6283 11.044 52.1559 13.4011 55.1274 16.3726C58.0989 19.3441 60.456 22.8717 62.0642 26.7541C63.6723 30.6366 64.5 34.7977 64.5 39C64.5 43.2023 63.6723 47.3635 62.0641 51.2459C60.456 55.1283 58.0989 58.656 55.1274 61.6274C52.1559 64.5989 48.6283 66.956 44.7458 68.5642C41.6037 69.8657 38.279 70.656 34.8977 70.91C33.576 71.0094 32.5 69.9255 32.5 68.6C32.5 67.2745 33.5765 66.211 34.8969 66.0942C37.6473 65.8509 40.3494 65.1897 42.909 64.1295C46.209 62.7626 49.2075 60.7591 51.7333 58.2333C54.259 55.7076 56.2626 52.7091 57.6295 49.409C58.9964 46.109 59.7 42.572 59.7 39C59.7 35.4281 58.9965 31.8911 57.6295 28.591C56.2626 25.291 54.2591 22.2925 51.7333 19.7667C49.2076 17.2409 46.2091 15.2374 42.909 13.8705C40.3494 12.8103 37.6473 12.1491 34.8969 11.9058C33.5766 11.789 32.5 10.7255 32.5 9.4Z" fill="#FFB800"/>
</g>
<defs>
<filter id="filter0_d_6_85" x="23.5" y="0.0836334" width="48" height="79.8327" filterUnits="userSpaceOnUse" color-interpolation-filters="sRGB">
<feFlood flood-opacity="0" result="BackgroundImageFix"/>
<feColorMatrix in="SourceAlpha" type="matrix" values="0 0 0 0 0 0 0 0 0 0 0 0 0 0 0 0 0 0 127 0" result="hardAlpha"/>
<feOffset dx="-1" dy="1"/>
<feGaussianBlur stdDeviation="4"/>
<feComposite in2="hardAlpha" operator="out"/>
<feColorMatrix type="matrix" values="0 0 0 0 0 0 0 0 0 0 0 0 0 0 0 0 0 0 0.15 0"/>
<feBlend mode="normal" in2="BackgroundImageFix" result="effect1_dropShadow_6_85"/>
<feBlend mode="normal" in="SourceGraphic" in2="effect1_dropShadow_6_85" result="shape"/>
</filter>
</defs>
</svg>
