<svg width="72" height="72" viewBox="0 0 72 72" fill="none" xmlns="http://www.w3.org/2000/svg">
<path d="M33 25.7322C33 25.7322 24 35.5822 24 42.5512C24 48.0493 27.4775 51.5114 33 51.5114C38.5225 51.5114 42 48.0493 42 42.5512C42 35.5822 33 25.7322 33 25.7322ZM34 48.2758V46.7824C34.9942 46.7813 35.9474 46.3876 36.6504 45.6877C37.3534 44.9878 37.7488 44.0388 37.75 43.049H39.25C39.2485 44.4348 38.6949 45.7634 37.7107 46.7433C36.7264 47.7232 35.3919 48.2743 34 48.2758Z" fill="#00A3FF"/>
<path d="M64.5 39C64.5 56.6731 50.1731 71 32.5 71C14.8269 71 0.5 56.6731 0.5 39C0.5 21.3269 14.8269 7 32.5 7C50.1731 7 64.5 21.3269 64.5 39ZM5.3 39C5.3 54.0221 17.4779 66.2 32.5 66.2C47.5221 66.2 59.7 54.0221 59.7 39C59.7 23.9779 47.5221 11.8 32.5 11.8C17.4779 11.8 5.3 23.9779 5.3 39Z" fill="#00A3FF" fill-opacity="0.1"/>
<g filter="url(#filter0_d_6_123)">
<path d="M32.5 9.4C32.5 8.07452 33.5761 6.99063 34.8978 7.08994C40.6002 7.51838 46.0996 9.46892 50.813 12.7582C56.1842 16.5065 60.2759 21.8127 62.5354 27.9604C64.795 34.1081 65.1137 40.8011 63.4485 47.1357C61.9873 52.6944 59.06 57.7422 54.9925 61.7616C54.0496 62.6933 52.5278 62.5642 51.6694 61.5543C50.811 60.5443 50.9426 59.0367 51.873 58.0926C55.1982 54.7187 57.5948 50.5235 58.8062 45.9153C60.2217 40.5309 59.9508 34.8419 58.0301 29.6164C56.1095 24.3908 52.6316 19.8805 48.0661 16.6945C44.1587 13.9676 39.6157 12.3232 34.897 11.9058C33.5767 11.789 32.5 10.7255 32.5 9.4Z" fill="#00A3FF"/>
</g>
<defs>
<filter id="filter0_d_6_123" x="23.5" y="0.0836182" width="48" height="71.3079" filterUnits="userSpaceOnUse" color-interpolation-filters="sRGB">
<feFlood flood-opacity="0" result="BackgroundImageFix"/>
<feColorMatrix in="SourceAlpha" type="matrix" values="0 0 0 0 0 0 0 0 0 0 0 0 0 0 0 0 0 0 127 0" result="hardAlpha"/>
<feOffset dx="-1" dy="1"/>
<feGaussianBlur stdDeviation="4"/>
<feComposite in2="hardAlpha" operator="out"/>
<feColorMatrix type="matrix" values="0 0 0 0 0 0 0 0 0 0 0 0 0 0 0 0 0 0 0.15 0"/>
<feBlend mode="normal" in2="BackgroundImageFix" result="effect1_dropShadow_6_123"/>
<feBlend mode="normal" in="SourceGraphic" in2="effect1_dropShadow_6_123" result="shape"/>
</filter>
</defs>
</svg>
