<svg width="22" height="21" viewBox="0 0 22 21" fill="none" xmlns="http://www.w3.org/2000/svg">
<path d="M14.9 1.75H7.89999C4.83749 1.75 3.52499 3.5 3.52499 6.125V14.875C3.52499 17.5 4.83749 19.25 7.89999 19.25H14.9C17.9625 19.25 19.275 17.5 19.275 14.875V6.125C19.275 3.5 17.9625 1.75 14.9 1.75ZM7.89999 10.7188H11.4C11.7587 10.7188 12.0562 11.0162 12.0562 11.375C12.0562 11.7338 11.7587 12.0312 11.4 12.0312H7.89999C7.54124 12.0312 7.24374 11.7338 7.24374 11.375C7.24374 11.0162 7.54124 10.7188 7.89999 10.7188ZM14.9 15.5312H7.89999C7.54124 15.5312 7.24374 15.2338 7.24374 14.875C7.24374 14.5162 7.54124 14.2188 7.89999 14.2188H14.9C15.2587 14.2188 15.5562 14.5162 15.5562 14.875C15.5562 15.2338 15.2587 15.5312 14.9 15.5312ZM17.0875 8.09375H15.3375C14.0075 8.09375 12.9312 7.0175 12.9312 5.6875V3.9375C12.9312 3.57875 13.2287 3.28125 13.5875 3.28125C13.9462 3.28125 14.2437 3.57875 14.2437 3.9375V5.6875C14.2437 6.29125 14.7337 6.78125 15.3375 6.78125H17.0875C17.4462 6.78125 17.7437 7.07875 17.7437 7.4375C17.7437 7.79625 17.4462 8.09375 17.0875 8.09375Z" fill="#707070"/>
</svg>
