<svg width="32" height="32" viewBox="0 0 32 32" fill="none" xmlns="http://www.w3.org/2000/svg">
<path opacity="0.4" d="M3.69333 13.3333C3.12 13.3333 2.66667 12.88 2.66667 12.3067V9.22666C2.66667 5.61332 5.61333 2.66666 9.22667 2.66666H12.3067C12.88 2.66666 13.3333 3.11999 13.3333 3.69332C13.3333 4.26666 12.88 4.71999 12.3067 4.71999H9.22667C6.73333 4.71999 4.72 6.74666 4.72 9.22666V12.3067C4.72 12.88 4.25333 13.3333 3.69333 13.3333Z" fill="url(#paint0_linear_36_705)"/>
<path opacity="0.4" d="M28.3067 13.3333C27.7467 13.3333 27.28 12.88 27.28 12.3067V9.22666C27.28 6.73332 25.2533 4.71999 22.7733 4.71999H19.6933C19.12 4.71999 18.6667 4.25332 18.6667 3.69332C18.6667 3.13332 19.12 2.66666 19.6933 2.66666H22.7733C26.3867 2.66666 29.3333 5.61332 29.3333 9.22666V12.3067C29.3333 12.88 28.88 13.3333 28.3067 13.3333Z" fill="url(#paint1_linear_36_705)"/>
<path d="M22.7733 29.3333H20.92C20.36 29.3333 19.8933 28.88 19.8933 28.3067C19.8933 27.7467 20.3467 27.28 20.92 27.28H22.7733C25.2667 27.28 27.28 25.2533 27.28 22.7733V20.9333C27.28 20.3733 27.7333 19.9067 28.3067 19.9067C28.8667 19.9067 29.3333 20.36 29.3333 20.9333V22.7733C29.3333 26.3867 26.3867 29.3333 22.7733 29.3333Z" fill="url(#paint2_linear_36_705)"/>
<path d="M12.3067 29.3333H9.22667C5.61333 29.3333 2.66667 26.3867 2.66667 22.7733V19.6933C2.66667 19.12 3.12 18.6667 3.69333 18.6667C4.26667 18.6667 4.72 19.12 4.72 19.6933V22.7733C4.72 25.2667 6.74667 27.28 9.22667 27.28H12.3067C12.8667 27.28 13.3333 27.7333 13.3333 28.3067C13.3333 28.88 12.88 29.3333 12.3067 29.3333Z" fill="url(#paint3_linear_36_705)"/>
<path d="M24.6133 14.9733H22.8H9.2H7.38667C6.81333 14.9733 6.36 15.44 6.36 16C6.36 16.56 6.81333 17.0267 7.38667 17.0267H9.2H22.8H24.6133C25.1867 17.0267 25.64 16.56 25.64 16C25.64 15.44 25.1867 14.9733 24.6133 14.9733Z" fill="url(#paint4_linear_36_705)"/>
<path d="M9.2 18.5867V19.0267C9.2 21.24 10.9867 23.0267 13.2 23.0267H18.8C21.0133 23.0267 22.8 21.24 22.8 19.0267V18.5867C22.8 18.4267 22.68 18.3067 22.52 18.3067H9.48C9.32 18.3067 9.2 18.4267 9.2 18.5867Z" fill="url(#paint5_linear_36_705)"/>
<path opacity="0.4" d="M9.2 13.4133V12.9733C9.2 10.76 10.9867 8.97333 13.2 8.97333H18.8C21.0133 8.97333 22.8 10.76 22.8 12.9733V13.4133C22.8 13.5733 22.68 13.6933 22.52 13.6933H9.48C9.32 13.6933 9.2 13.5733 9.2 13.4133Z" fill="url(#paint6_linear_36_705)"/>
<defs>
<linearGradient id="paint0_linear_36_705" x1="8" y1="2.66666" x2="8" y2="13.3333" gradientUnits="userSpaceOnUse">
<stop stop-color="#27AA5B"/>
<stop offset="1" stop-color="#136F38"/>
</linearGradient>
<linearGradient id="paint1_linear_36_705" x1="24" y1="2.66666" x2="24" y2="13.3333" gradientUnits="userSpaceOnUse">
<stop stop-color="#27AA5B"/>
<stop offset="1" stop-color="#136F38"/>
</linearGradient>
<linearGradient id="paint2_linear_36_705" x1="24.6133" y1="19.9067" x2="24.6133" y2="29.3333" gradientUnits="userSpaceOnUse">
<stop stop-color="#27AA5B"/>
<stop offset="1" stop-color="#136F38"/>
</linearGradient>
<linearGradient id="paint3_linear_36_705" x1="8" y1="18.6667" x2="8" y2="29.3333" gradientUnits="userSpaceOnUse">
<stop stop-color="#27AA5B"/>
<stop offset="1" stop-color="#136F38"/>
</linearGradient>
<linearGradient id="paint4_linear_36_705" x1="16" y1="14.9733" x2="16" y2="17.0267" gradientUnits="userSpaceOnUse">
<stop stop-color="#27AA5B"/>
<stop offset="1" stop-color="#136F38"/>
</linearGradient>
<linearGradient id="paint5_linear_36_705" x1="16" y1="18.3067" x2="16" y2="23.0267" gradientUnits="userSpaceOnUse">
<stop stop-color="#27AA5B"/>
<stop offset="1" stop-color="#136F38"/>
</linearGradient>
<linearGradient id="paint6_linear_36_705" x1="16" y1="8.97333" x2="16" y2="13.6933" gradientUnits="userSpaceOnUse">
<stop stop-color="#27AA5B"/>
<stop offset="1" stop-color="#136F38"/>
</linearGradient>
</defs>
</svg>
