<svg width="14" height="15" viewBox="0 0 14 15" fill="none" xmlns="http://www.w3.org/2000/svg">
<path d="M12.8333 5.05583V7.79166H10.4533C10.3833 7.78583 10.2317 7.69833 10.1967 7.63416L9.58999 6.485C9.35082 6.03 8.93666 5.77333 8.49332 5.79666C8.04999 5.82 7.67082 6.1175 7.47832 6.60166L6.67332 8.62L6.55666 8.31666C6.27082 7.57583 5.45416 7.01583 4.64916 7.01583L1.16666 7.03333V5.05583C1.16666 2.9325 2.43249 1.66666 4.55582 1.66666H9.44416C11.5675 1.66666 12.8333 2.9325 12.8333 5.05583Z" fill="#707070"/>
<path d="M12.8333 9.94416V8.66666H10.4533C10.0625 8.66666 9.60166 8.38666 9.42082 8.0425L8.81416 6.89333C8.65082 6.58416 8.41749 6.60166 8.28916 6.9225L6.94749 10.3117C6.80166 10.6908 6.55666 10.6908 6.40499 10.3117L5.73999 8.63166C5.58249 8.22333 5.09249 7.89083 4.65499 7.89083L1.16666 7.90833V9.94416C1.16666 12.0325 2.39166 13.2925 4.45082 13.3275C4.51499 13.3333 4.58499 13.3333 4.64916 13.3333H9.31582C9.40332 13.3333 9.49082 13.3333 9.57249 13.3275C11.62 13.2808 12.8333 12.0267 12.8333 9.94416Z" fill="#707070"/>
<path d="M1.16667 7.90833V9.83917C1.155 9.6525 1.14917 9.45417 1.14917 9.25V7.90833H1.16667Z" fill="#292D32"/>
</svg>
