<svg width="16" height="16" viewBox="0 0 16 16" fill="none" xmlns="http://www.w3.org/2000/svg">
<path d="M10.7935 1.33334H5.20683C2.78016 1.33334 1.3335 2.78 1.3335 5.20667V10.7867C1.3335 13.22 2.78016 14.6667 5.20683 14.6667H10.7868C13.2135 14.6667 14.6602 13.22 14.6602 10.7933V5.20667C14.6668 2.78 13.2202 1.33334 10.7935 1.33334ZM11.6868 6.48L10.6402 7.52667C10.5402 7.62667 10.4135 7.67334 10.2868 7.67334C10.1602 7.67334 10.0335 7.62667 9.9335 7.52667C9.74016 7.33334 9.74016 7.01334 9.9335 6.82L10.1068 6.64667H6.72016C5.86683 6.64667 5.16683 7.34 5.16683 8.2C5.16683 9.06 5.86016 9.75334 6.72016 9.75334H10.0002C10.2735 9.75334 10.5002 9.98 10.5002 10.2533C10.5002 10.5267 10.2735 10.7533 10.0002 10.7533H6.72016C5.3135 10.7533 4.16683 9.60667 4.16683 8.2C4.16683 6.79334 5.3135 5.64667 6.72016 5.64667H10.1535L9.9335 5.43334C9.74016 5.24 9.74016 4.92 9.9335 4.72667C10.1268 4.53334 10.4468 4.53334 10.6402 4.72667L11.6868 5.77334C11.8802 5.97334 11.8802 6.28667 11.6868 6.48Z" fill="#707070"/>
</svg>
