<svg width="22" height="21" viewBox="0 0 22 21" fill="none" xmlns="http://www.w3.org/2000/svg">
<path d="M17.835 5.96751L12.795 2.44126C11.4213 1.47876 9.31251 1.53126 7.99126 2.55501L3.60751 5.97626C2.73251 6.65876 2.04126 8.05876 2.04126 9.16126V15.1988C2.04126 17.43 3.85251 19.25 6.08376 19.25H15.5163C17.7475 19.25 19.5588 17.4388 19.5588 15.2075V9.27501C19.5588 8.09376 18.7975 6.64126 17.835 5.96751ZM11.4563 15.75C11.4563 16.1088 11.1588 16.4063 10.8 16.4063C10.4413 16.4063 10.1438 16.1088 10.1438 15.75V13.125C10.1438 12.7663 10.4413 12.4688 10.8 12.4688C11.1588 12.4688 11.4563 12.7663 11.4563 13.125V15.75Z" fill="#707070"/>
</svg>
