<svg width="16" height="17" viewBox="0 0 16 17" fill="none" xmlns="http://www.w3.org/2000/svg">
<path d="M8.00004 1.83334C4.32671 1.83334 1.33337 4.82668 1.33337 8.50001C1.33337 12.1733 4.32671 15.1667 8.00004 15.1667C11.6734 15.1667 14.6667 12.1733 14.6667 8.50001C14.6667 4.82668 11.6734 1.83334 8.00004 1.83334ZM7.50004 5.83334C7.50004 5.56001 7.72671 5.33334 8.00004 5.33334C8.27337 5.33334 8.50004 5.56001 8.50004 5.83334V9.16668C8.50004 9.44001 8.27337 9.66668 8.00004 9.66668C7.72671 9.66668 7.50004 9.44001 7.50004 9.16668V5.83334ZM8.61337 11.42C8.58004 11.5067 8.53337 11.5733 8.47337 11.64C8.40671 11.7 8.33337 11.7467 8.25337 11.78C8.17337 11.8133 8.08671 11.8333 8.00004 11.8333C7.91337 11.8333 7.82671 11.8133 7.74671 11.78C7.66671 11.7467 7.59337 11.7 7.52671 11.64C7.46671 11.5733 7.42004 11.5067 7.38671 11.42C7.35337 11.34 7.33337 11.2533 7.33337 11.1667C7.33337 11.08 7.35337 10.9933 7.38671 10.9133C7.42004 10.8333 7.46671 10.76 7.52671 10.6933C7.59337 10.6333 7.66671 10.5867 7.74671 10.5533C7.90671 10.4867 8.09337 10.4867 8.25337 10.5533C8.33337 10.5867 8.40671 10.6333 8.47337 10.6933C8.53337 10.76 8.58004 10.8333 8.61337 10.9133C8.64671 10.9933 8.66671 11.08 8.66671 11.1667C8.66671 11.2533 8.64671 11.34 8.61337 11.42Z" fill="#707070"/>
</svg>
