<svg width="24" height="24" viewBox="0 0 24 24" fill="none" xmlns="http://www.w3.org/2000/svg">
<path d="M20.19 14.06L19.06 12.18C18.81 11.77 18.59 10.98 18.59 10.5V8.62999C18.59 4.99999 15.64 2.04999 12.02 2.04999C8.39001 2.05999 5.44 4.99999 5.44 8.62999V10.49C5.44 10.97 5.22 11.76 4.98 12.17L3.85 14.05C3.42 14.78 3.32 15.61 3.59 16.33C3.86 17.06 4.47 17.64 5.27 17.9C6.35 18.26 7.44 18.52 8.55 18.71C8.66 18.73 8.77 18.74 8.88 18.76C9.02 18.78 9.17 18.8 9.32 18.82C9.58 18.86 9.84 18.89 10.11 18.91C10.74 18.97 11.38 19 12.02 19C12.65 19 13.28 18.97 13.9 18.91C14.13 18.89 14.36 18.87 14.58 18.84C14.76 18.82 14.94 18.8 15.12 18.77C15.23 18.76 15.34 18.74 15.45 18.72C16.57 18.54 17.68 18.26 18.76 17.9C19.53 17.64 20.12 17.06 20.4 16.32C20.68 15.57 20.6 14.75 20.19 14.06ZM12.75 9.99999C12.75 10.42 12.41 10.76 11.99 10.76C11.57 10.76 11.23 10.42 11.23 9.99999V6.89999C11.23 6.47999 11.57 6.13999 11.99 6.13999C12.41 6.13999 12.75 6.47999 12.75 6.89999V9.99999Z" fill="#707070"/>
<path d="M10.2651 20.4282C10.3059 20.4762 10.3486 20.5213 10.3929 20.5628L10.4067 20.5757L10.4197 20.5892C10.5436 20.7177 10.6844 20.8295 10.8372 20.9228C10.6321 20.9103 10.4282 20.895 10.2261 20.8773L10.2651 20.4282ZM10.2651 20.4282L10.29 20.13C10.86 20.18 11.44 20.21 12.02 20.21C12.59 20.21 13.16 20.18 13.72 20.13L10.2651 20.4282Z" stroke="#707070" stroke-width="1.5"/>
</svg>
