<svg width="16" height="16" viewBox="0 0 16 16" fill="none" xmlns="http://www.w3.org/2000/svg">
<path d="M11.3335 1.33334H4.66683C2.82683 1.33334 1.3335 2.82 1.3335 4.65334V8.64V9.30667C1.3335 11.14 2.82683 12.6267 4.66683 12.6267H5.66683C5.84683 12.6267 6.08683 12.7467 6.20016 12.8933L7.20016 14.22C7.64016 14.8067 8.36016 14.8067 8.80016 14.22L9.80016 12.8933C9.92683 12.7267 10.1268 12.6267 10.3335 12.6267H11.3335C13.1735 12.6267 14.6668 11.14 14.6668 9.30667V4.65334C14.6668 2.82 13.1735 1.33334 11.3335 1.33334ZM5.3335 8C4.96016 8 4.66683 7.7 4.66683 7.33334C4.66683 6.96667 4.96683 6.66667 5.3335 6.66667C5.70016 6.66667 6.00016 6.96667 6.00016 7.33334C6.00016 7.7 5.70683 8 5.3335 8ZM8.00016 8C7.62683 8 7.3335 7.7 7.3335 7.33334C7.3335 6.96667 7.6335 6.66667 8.00016 6.66667C8.36683 6.66667 8.66683 6.96667 8.66683 7.33334C8.66683 7.7 8.3735 8 8.00016 8ZM10.6668 8C10.2935 8 10.0002 7.7 10.0002 7.33334C10.0002 6.96667 10.3002 6.66667 10.6668 6.66667C11.0335 6.66667 11.3335 6.96667 11.3335 7.33334C11.3335 7.7 11.0402 8 10.6668 8Z" fill="#707070"/>
</svg>
