<svg width="22" height="21" viewBox="0 0 22 21" fill="none" xmlns="http://www.w3.org/2000/svg">
<path d="M18.4875 8.06751C16.9037 8.06751 16.2562 6.9475 17.0437 5.57376C17.4987 4.77751 17.2275 3.76251 16.4312 3.30751L14.9175 2.44126C14.2262 2.03001 13.3337 2.27501 12.9225 2.96626L12.8262 3.13251C12.0387 4.50626 10.7437 4.50626 9.94749 3.13251L9.85124 2.96626C9.45749 2.27501 8.56499 2.03001 7.87374 2.44126L6.35999 3.30751C5.56374 3.76251 5.29249 4.78626 5.74749 5.58251C6.54374 6.94751 5.89624 8.06751 4.31249 8.06751C3.40249 8.06751 2.64999 8.81125 2.64999 9.73V11.27C2.64999 12.18 3.39374 12.9325 4.31249 12.9325C5.89624 12.9325 6.54374 14.0525 5.74749 15.4263C5.29249 16.2225 5.56374 17.2375 6.35999 17.6925L7.87374 18.5588C8.56499 18.97 9.45749 18.725 9.86874 18.0338L9.96499 17.8675C10.7525 16.4938 12.0475 16.4938 12.8437 17.8675L12.94 18.0338C13.3512 18.725 14.2437 18.97 14.935 18.5588L16.4487 17.6925C17.245 17.2375 17.5162 16.2138 17.0612 15.4263C16.265 14.0525 16.9125 12.9325 18.4962 12.9325C19.4062 12.9325 20.1587 12.1888 20.1587 11.27V9.73C20.15 8.82 19.4062 8.06751 18.4875 8.06751ZM11.4 13.3438C9.83374 13.3438 8.55624 12.0663 8.55624 10.5C8.55624 8.93375 9.83374 7.65626 11.4 7.65626C12.9662 7.65626 14.2437 8.93375 14.2437 10.5C14.2437 12.0663 12.9662 13.3438 11.4 13.3438Z" fill="#707070"/>
</svg>
