<svg width="14" height="15" viewBox="0 0 14 15" fill="none" xmlns="http://www.w3.org/2000/svg">
<path d="M7.00002 11.5833C9.25518 11.5833 11.0834 9.75516 11.0834 7.5C11.0834 5.24483 9.25518 3.41666 7.00002 3.41666C4.74486 3.41666 2.91669 5.24483 2.91669 7.5C2.91669 9.75516 4.74486 11.5833 7.00002 11.5833Z" fill="#707070"/>
<path d="M6.99998 13.8933C6.67915 13.8933 6.41665 13.6542 6.41665 13.3333V13.2867C6.41665 12.9658 6.67915 12.7033 6.99998 12.7033C7.32081 12.7033 7.58331 12.9658 7.58331 13.2867C7.58331 13.6075 7.32081 13.8933 6.99998 13.8933ZM11.165 12.2483C11.0133 12.2483 10.8675 12.19 10.7508 12.0792L10.675 12.0033C10.4475 11.7758 10.4475 11.4083 10.675 11.1808C10.9025 10.9533 11.27 10.9533 11.4975 11.1808L11.5733 11.2567C11.8008 11.4842 11.8008 11.8517 11.5733 12.0792C11.4625 12.19 11.3166 12.2483 11.165 12.2483ZM2.83498 12.2483C2.68331 12.2483 2.53748 12.19 2.42081 12.0792C2.19331 11.8517 2.19331 11.4842 2.42081 11.2567L2.49665 11.1808C2.72415 10.9533 3.09165 10.9533 3.31915 11.1808C3.54665 11.4083 3.54665 11.7758 3.31915 12.0033L3.24331 12.0792C3.13248 12.19 2.98081 12.2483 2.83498 12.2483ZM12.8333 8.08334H12.7866C12.4658 8.08334 12.2033 7.82084 12.2033 7.5C12.2033 7.17917 12.4658 6.91667 12.7866 6.91667C13.1075 6.91667 13.3933 7.17917 13.3933 7.5C13.3933 7.82084 13.1541 8.08334 12.8333 8.08334ZM1.21331 8.08334H1.16665C0.845813 8.08334 0.583313 7.82084 0.583313 7.5C0.583313 7.17917 0.845813 6.91667 1.16665 6.91667C1.48748 6.91667 1.77331 7.17917 1.77331 7.5C1.77331 7.82084 1.53415 8.08334 1.21331 8.08334ZM11.0891 3.99417C10.9375 3.99417 10.7916 3.93584 10.675 3.825C10.4475 3.5975 10.4475 3.23 10.675 3.0025L10.7508 2.92667C10.9783 2.69917 11.3458 2.69917 11.5733 2.92667C11.8008 3.15417 11.8008 3.52167 11.5733 3.74917L11.4975 3.825C11.3866 3.93584 11.2408 3.99417 11.0891 3.99417ZM2.91081 3.99417C2.75915 3.99417 2.61331 3.93584 2.49665 3.825L2.42081 3.74334C2.19331 3.51584 2.19331 3.14834 2.42081 2.92084C2.64831 2.69334 3.01581 2.69334 3.24331 2.92084L3.31915 2.99667C3.54665 3.22417 3.54665 3.59167 3.31915 3.81917C3.20831 3.93584 3.05665 3.99417 2.91081 3.99417ZM6.99998 2.27334C6.67915 2.27334 6.41665 2.03417 6.41665 1.71334V1.66667C6.41665 1.34584 6.67915 1.08334 6.99998 1.08334C7.32081 1.08334 7.58331 1.34584 7.58331 1.66667C7.58331 1.9875 7.32081 2.27334 6.99998 2.27334Z" fill="#707070"/>
</svg>
