<svg width="15" height="15" viewBox="0 0 15 15" fill="none" xmlns="http://www.w3.org/2000/svg">
<path d="M7.66668 1.66666C8.26532 1.66666 8.84106 1.89675 9.27482 2.30934C9.70857 2.72192 9.96716 3.28544 9.99709 3.88333L10 4L10.0006 7.92466L10.0327 7.9585C10.4999 8.46756 10.7897 9.11428 10.8587 9.80183L10.8709 9.96283L10.875 10.125C10.875 10.64 10.7509 11.1473 10.5135 11.6043C10.276 12.0612 9.93199 12.4543 9.51057 12.7502C9.08915 13.0462 8.60269 13.2363 8.09228 13.3047C7.58187 13.373 7.06251 13.3174 6.5781 13.1427C6.09368 12.968 5.65845 12.6792 5.30916 12.3008C4.95988 11.9224 4.70681 11.4655 4.57134 10.9687C4.43588 10.4718 4.42199 9.9497 4.53086 9.44638C4.63974 8.94306 4.86816 8.47334 5.19684 8.07691L5.30126 7.95733L5.33276 7.92408L5.33334 4C5.33329 3.42182 5.5479 2.86422 5.93557 2.43527C6.32324 2.00632 6.85636 1.73658 7.43159 1.67833L7.55001 1.66958L7.66668 1.66666ZM7.66668 2.83333C7.37234 2.83324 7.08885 2.9444 6.87302 3.14454C6.6572 3.34467 6.525 3.61899 6.50293 3.9125L6.50001 4V8.42925L6.30576 8.60308C6.00147 8.87522 5.78575 9.23232 5.68644 9.62829C5.58714 10.0243 5.60882 10.4409 5.74869 10.8244C5.88855 11.2079 6.14017 11.5407 6.47107 11.7798C6.80196 12.0189 7.19693 12.1533 7.60497 12.1657C8.01301 12.178 8.41539 12.0678 8.76015 11.8492C9.10491 11.6305 9.37621 11.3136 9.53903 10.9392C9.70185 10.5649 9.74871 10.1503 9.67356 9.74906C9.5984 9.34781 9.40469 8.9783 9.11743 8.68825L9.02818 8.60366L8.83393 8.42983L8.83334 4C8.83334 3.69058 8.71043 3.39383 8.49163 3.17504C8.27284 2.95625 7.9761 2.83333 7.66668 2.83333ZM7.66668 5.16666C7.82139 5.16666 7.96976 5.22812 8.07916 5.33752C8.18855 5.44692 8.25001 5.59529 8.25001 5.75V8.788C8.55708 8.92201 8.80864 9.15767 8.96239 9.45535C9.11614 9.75303 9.1627 10.0946 9.09425 10.4225C9.0258 10.7505 8.8465 11.0449 8.58652 11.2562C8.32653 11.4676 8.00171 11.5829 7.66668 11.5829C7.33164 11.5829 7.00682 11.4676 6.74683 11.2562C6.48685 11.0449 6.30756 10.7505 6.23911 10.4225C6.17065 10.0946 6.21722 9.75303 6.37097 9.45535C6.52472 9.15767 6.77628 8.92201 7.08334 8.788V5.75C7.08334 5.59529 7.1448 5.44692 7.2542 5.33752C7.36359 5.22812 7.51197 5.16666 7.66668 5.16666Z" fill="#707070"/>
</svg>
