<svg width="22" height="21" viewBox="0 0 22 21" fill="none" xmlns="http://www.w3.org/2000/svg">
<path d="M14.7 1.75H7.69999C4.19999 1.75 2.44999 3.5 2.44999 7V18.375C2.44999 18.8563 2.84374 19.25 3.32499 19.25H14.7C18.2 19.25 19.95 17.5 19.95 14V7C19.95 3.5 18.2 1.75 14.7 1.75ZM10.4212 14.5775C10.2025 14.7962 9.79999 14.9975 9.50249 15.0413L7.68249 15.295C7.61249 15.3037 7.54249 15.3125 7.48124 15.3125C7.17499 15.3125 6.89499 15.2075 6.69374 15.0062C6.44874 14.7612 6.34374 14.4025 6.40499 14.0175L6.65874 12.1975C6.70249 11.9 6.90374 11.4888 7.12249 11.2788L10.4212 7.98C10.4737 8.1375 10.5437 8.295 10.6225 8.47C10.7012 8.6275 10.78 8.785 10.8675 8.93375C10.9375 9.05625 11.0162 9.17875 11.0862 9.26625C11.1737 9.3975 11.2612 9.51125 11.3225 9.5725C11.3575 9.625 11.3925 9.66 11.4012 9.6775C11.5937 9.89625 11.795 10.1062 11.9875 10.2637C12.04 10.3162 12.075 10.3425 12.0837 10.3512C12.1975 10.4387 12.3025 10.535 12.4075 10.5962C12.5212 10.6837 12.6437 10.7625 12.7662 10.8325C12.915 10.92 13.0725 11.0075 13.2387 11.0863C13.405 11.165 13.5625 11.2263 13.72 11.2788L10.4212 14.5775ZM15.1812 9.82625L14.4987 10.5088C14.455 10.5525 14.3937 10.5788 14.3325 10.5788C14.315 10.5788 14.28 10.5787 14.2625 10.57C12.7575 10.1412 11.5587 8.9425 11.13 7.4375C11.1037 7.35875 11.13 7.27125 11.1912 7.21L11.8825 6.51875C13.0112 5.39 14.0787 5.41625 15.1812 6.51875C15.7412 7.07875 16.0212 7.62125 16.0125 8.18125C16.0125 8.7325 15.7412 9.26625 15.1812 9.82625Z" fill="#707070"/>
</svg>
