<svg width="16" height="16" viewBox="0 0 16 16" fill="none" xmlns="http://www.w3.org/2000/svg">
<path d="M12.32 8.16667C12.5067 8.16667 12.6667 8.00666 12.6533 7.82C12.4733 5.40666 10.46 3.5 8.00001 3.5C5.54001 3.5 3.52669 5.4 3.34668 7.82C3.33335 8.00666 3.49335 8.16667 3.68002 8.16667H12.32Z" fill="#FFB800"/>
<path d="M14.6667 8.66666H14.6133C14.2467 8.66666 13.9467 8.36666 13.9467 7.99999C13.9467 7.63332 14.2467 7.33332 14.6133 7.33332C14.98 7.33332 15.3067 7.63332 15.3067 7.99999C15.3067 8.36666 15.0333 8.66666 14.6667 8.66666ZM1.38668 8.66666H1.33333C0.966666 8.66666 0.666666 8.36666 0.666666 7.99999C0.666666 7.63332 0.966666 7.33332 1.33333 7.33332C1.7 7.33332 2.02665 7.63332 2.02665 7.99999C2.02665 8.36666 1.75334 8.66666 1.38668 8.66666ZM12.6733 3.99333C12.5 3.99333 12.3333 3.92665 12.2 3.79999C11.94 3.53999 11.94 3.11999 12.2 2.85999L12.2867 2.77333C12.5467 2.51333 12.9667 2.51333 13.2267 2.77333C13.4867 3.03333 13.4867 3.45333 13.2267 3.71333L13.14 3.79999C13.0133 3.92665 12.8467 3.99333 12.6733 3.99333ZM3.32666 3.99333C3.15333 3.99333 2.98669 3.92665 2.85335 3.79999L2.76668 3.71333C2.50668 3.45333 2.50668 3.03333 2.76668 2.77333C3.02668 2.51333 3.44666 2.51333 3.70666 2.77333L3.79333 2.85999C4.05333 3.11999 4.05333 3.53999 3.79333 3.79999C3.66667 3.92665 3.49333 3.99333 3.32666 3.99333ZM8 2.02665C7.63333 2.02665 7.33333 1.75332 7.33333 1.38666V1.33332C7.33333 0.966657 7.63333 0.666656 8 0.666656C8.36667 0.666656 8.66667 0.966657 8.66667 1.33332C8.66667 1.69999 8.36667 2.02665 8 2.02665Z" fill="#FFB800"/>
<path opacity="0.4" d="M13.3333 10.5H2.66667C2.39333 10.5 2.16667 10.2733 2.16667 10C2.16667 9.72667 2.39333 9.5 2.66667 9.5H13.3333C13.6067 9.5 13.8333 9.72667 13.8333 10C13.8333 10.2733 13.6067 10.5 13.3333 10.5Z" fill="#FFB800"/>
<path opacity="0.4" d="M12 12.5H4C3.72667 12.5 3.5 12.2733 3.5 12C3.5 11.7267 3.72667 11.5 4 11.5H12C12.2733 11.5 12.5 11.7267 12.5 12C12.5 12.2733 12.2733 12.5 12 12.5Z" fill="#FFB800"/>
<path opacity="0.4" d="M10 14.5H6C5.72667 14.5 5.5 14.2733 5.5 14C5.5 13.7267 5.72667 13.5 6 13.5H10C10.2733 13.5 10.5 13.7267 10.5 14C10.5 14.2733 10.2733 14.5 10 14.5Z" fill="#FFB800"/>
</svg>
